<svg id="Layer_1" data-name="Layer 1" xmlns="http://www.w3.org/2000/svg" viewBox="0 0 228.76 125.65"><defs><style>.cls-1{fill:#f9a64a;stroke:#603813;stroke-miterlimit:10;stroke-width:3px;}.cls-2{font-size:19.81px;font-family:PerpetuaTitlingMT-Bold, Perpetua Titling MT;font-weight:700;}.cls-2,.cls-3{fill:#603813;}</style></defs><title>logo</title><path class="cls-1" d="M367.1,295.81c4.46,10.34,30.15,9.44,59.63-1.38l-17.71-41C380.92,267.41,362.64,285.47,367.1,295.81Z" transform="translate(-364.93 -223.15)"/><path class="cls-1" d="M591.52,295.81c-4.46,10.34-30.15,9.44-59.63-1.38l17.71-41C577.7,267.41,596,285.47,591.52,295.81Z" transform="translate(-364.93 -223.15)"/><path class="cls-1" d="M405.79,248.13a5.24,5.24,0,0,0-3.68,6.41l12,44.28a5.24,5.24,0,0,0,6.41,3.68l22.14-6-14.69-54.37Z" transform="translate(-364.93 -223.15)"/><path class="cls-1" d="M423.12,236.36a5.24,5.24,0,0,0-4.13,6.13l11.51,59.16a5.24,5.24,0,0,0,6.13,4.13L466.21,300,452.71,230.6Z" transform="translate(-364.93 -223.15)"/><path class="cls-1" d="M551.81,248.39a5.24,5.24,0,0,1,3.68,6.41l-12,44.28a5.24,5.24,0,0,1-6.41,3.68l-22.14-6,14.69-54.37Z" transform="translate(-364.93 -223.15)"/><path class="cls-1" d="M534.47,236.61a5.24,5.24,0,0,1,4.13,6.13L527.09,301.9A5.24,5.24,0,0,1,521,306l-29.58-5.76,13.51-69.42Z" transform="translate(-364.93 -223.15)"/><path class="cls-1" d="M436.57,234.64l7.84,69.24a9,9,0,0,0,8.93,8h50.76A9,9,0,0,0,513,304l8.82-69.24a9,9,0,0,0-8.91-10.12H445.5A9,9,0,0,0,436.57,234.64Z" transform="translate(-364.93 -223.15)"/><text class="cls-2" transform="translate(17.98 101.28) rotate(18.28)">P</text><text class="cls-2" transform="matrix(0.96, 0.27, -0.27, 0.96, 29.94, 105.25)">A</text><text class="cls-2" transform="translate(46.39 109.76) rotate(13.15)">S</text><text class="cls-2" transform="matrix(0.98, 0.19, -0.19, 0.98, 57.51, 112.37)">T</text><text class="cls-2" transform="translate(72.32 115.19) rotate(7.79)">R</text><text class="cls-2" transform="matrix(1, 0.08, -0.08, 1, 87.72, 117.32)">Y</text><text class="cls-2" transform="translate(105.4 118.58) rotate(1.68)"> </text><text class="cls-2" transform="matrix(1, -0.02, 0.02, 1, 113.56, 118.89)">V</text><text class="cls-2" transform="translate(129.69 118.39) rotate(-4.56)">I</text><text class="cls-2" transform="translate(138.38 117.72) rotate(-7.76)">L</text><text class="cls-2" transform="translate(151.85 115.83) rotate(-12.06)">L</text><text class="cls-2" transform="translate(165.34 112.97) rotate(-17.53)">A</text><text class="cls-2" transform="matrix(0.91, -0.41, 0.41, 0.91, 181.22, 107.91)">G</text><text class="cls-2" transform="matrix(0.86, -0.51, 0.51, 0.86, 197.26, 100.54)">E</text><path class="cls-3" d="M477.63,276.68c-13.3,0-23.71-1.58-23.71-3.59s10.42-3.59,23.71-3.59,23.71,1.58,23.71,3.59S490.93,276.68,477.63,276.68Zm0-7c-12.76,0-23.55,1.57-23.55,3.43s10.78,3.43,23.55,3.43,23.55-1.57,23.55-3.43S490.39,269.66,477.63,269.66Z" transform="translate(-364.93 -223.15)"/><path class="cls-3" d="M477.63,277.51a119.72,119.72,0,0,1-17-1.05c-6.72-1-7.58-2.34-7.58-3.38s.86-2.36,7.58-3.38a137.57,137.57,0,0,1,33.94,0c6.72,1,7.58,2.34,7.58,3.38s-.86,2.36-7.58,3.38A119.72,119.72,0,0,1,477.63,277.51Zm-22.57-4.43c.46.31,2,1,6.89,1.69a136.73,136.73,0,0,0,31.36,0c4.89-.65,6.44-1.39,6.89-1.69-.46-.31-2-1-6.89-1.69a136.71,136.71,0,0,0-31.36,0C457.06,272,455.51,272.78,455.06,273.08Z" transform="translate(-364.93 -223.15)"/><path class="cls-3" d="M477.61,295.43a24.49,24.49,0,0,1-24.38-22.27l1.66-.15a22.82,22.82,0,0,0,45.45,0l1.66.15a24.49,24.49,0,0,1-24.38,22.27Z" transform="translate(-364.93 -223.15)"/><path class="cls-3" d="M503,286.55a21.65,21.65,0,0,1-6.36-1.11l.5-1.59c5,1.57,8.75,1.37,10.71-.59s1.77-4.8,1.11-7-2.06-3.94-3.35-4.19a3.58,3.58,0,0,0-3.74,1.87l-1.49-.75a5.19,5.19,0,0,1,5.55-2.76c1.94.37,3.76,2.47,4.63,5.34.81,2.64.83,6.3-1.53,8.64A8.13,8.13,0,0,1,503,286.55Z" transform="translate(-364.93 -223.15)"/><path class="cls-3" d="M477.63,276.68c-13.3,0-23.71-1.58-23.71-3.59s10.42-3.59,23.71-3.59,23.71,1.58,23.71,3.59S490.93,276.68,477.63,276.68Zm0-7c-12.76,0-23.55,1.57-23.55,3.43s10.78,3.43,23.55,3.43,23.55-1.57,23.55-3.43S490.39,269.66,477.63,269.66Z" transform="translate(-364.93 -223.15)"/><path class="cls-3" d="M477.63,277.51a119.72,119.72,0,0,1-17-1.05c-6.72-1-7.58-2.34-7.58-3.38s.86-2.36,7.58-3.38a137.57,137.57,0,0,1,33.94,0c6.72,1,7.58,2.34,7.58,3.38s-.86,2.36-7.58,3.38A119.72,119.72,0,0,1,477.63,277.51Zm-22.57-4.43c.46.31,2,1,6.89,1.69a136.73,136.73,0,0,0,31.36,0c4.89-.65,6.44-1.39,6.89-1.69-.46-.31-2-1-6.89-1.69a136.71,136.71,0,0,0-31.36,0C457.06,272,455.51,272.78,455.06,273.08Z" transform="translate(-364.93 -223.15)"/><path class="cls-3" d="M477.61,295.43a24.49,24.49,0,0,1-24.38-22.27l1.66-.15a22.82,22.82,0,0,0,45.45,0l1.66.15a24.49,24.49,0,0,1-24.38,22.27Z" transform="translate(-364.93 -223.15)"/><path class="cls-3" d="M503,286.55a21.65,21.65,0,0,1-6.36-1.11l.5-1.59c5,1.57,8.75,1.37,10.71-.59s1.77-4.8,1.11-7-2.06-3.94-3.35-4.19a3.58,3.58,0,0,0-3.74,1.87l-1.49-.75a5.19,5.19,0,0,1,5.55-2.76c1.94.37,3.76,2.47,4.63,5.34.81,2.64.83,6.3-1.53,8.64A8.13,8.13,0,0,1,503,286.55Z" transform="translate(-364.93 -223.15)"/><path class="cls-3" d="M499.45,292.9a1.32,1.32,0,0,1,.35.84c0,2.58-9.65,4.68-21.55,4.68s-21.55-2.09-21.55-4.68a1.52,1.52,0,0,1,.6-1.1c-3.13.92-5,2.06-5,3.3,0,3.08,11.48,5.57,25.64,5.57s25.64-2.49,25.64-5.57C503.61,294.82,502.08,293.78,499.45,292.9Z" transform="translate(-364.93 -223.15)"/><path class="cls-3" d="M478,279.66c-7.79,0-14.54-.82-16.29-1.89h-.4a16.8,16.8,0,0,0,33.35,0h-.37C492.56,278.84,485.81,279.66,478,279.66Z" transform="translate(-364.93 -223.15)"/><path class="cls-3" d="M479,248.21c1.58,6.39.87,17.86.87,17.86s2.36-11.46.87-17.86a58.2,58.2,0,0,1-.87-17.86A31.65,31.65,0,0,0,479,248.21Z" transform="translate(-364.93 -223.15)"/><path class="cls-3" d="M475.39,248.54c1.06,4.29.58,12,.58,12s1.59-7.7.58-12a39.08,39.08,0,0,1-.58-12A21.25,21.25,0,0,0,475.39,248.54Z" transform="translate(-364.93 -223.15)"/></svg>